<svg xmlns="http://www.w3.org/2000/svg" width="160" height="160" viewBox="0 0 160 160">
  <rect width="160" height="160" fill="#ffffff"/>
  <rect x="8" y="8" width="48" height="48" fill="#111827"/>
  <rect x="16" y="16" width="32" height="32" fill="#ffffff"/>
  <rect x="24" y="24" width="16" height="16" fill="#111827"/>
  <rect x="104" y="8" width="48" height="48" fill="#111827"/>
  <rect x="112" y="16" width="32" height="32" fill="#ffffff"/>
  <rect x="120" y="24" width="16" height="16" fill="#111827"/>
  <rect x="8" y="104" width="48" height="48" fill="#111827"/>
  <rect x="16" y="112" width="32" height="32" fill="#ffffff"/>
  <rect x="24" y="120" width="16" height="16" fill="#111827"/>
  <rect x="72" y="72" width="16" height="16" fill="#111827"/>
  <rect x="88" y="88" width="8" height="8" fill="#111827"/>
  <rect x="96" y="72" width="8" height="8" fill="#111827"/>
  <rect x="72" y="96" width="8" height="8" fill="#111827"/>
  <rect x="104" y="72" width="16" height="16" fill="#111827"/>
  <rect x="72" y="112" width="16" height="16" fill="#111827"/>
</svg>
