<svg xmlns="http://www.w3.org/2000/svg" width="160" height="160" viewBox="0 0 160 160">
  <rect width="160" height="160" fill="#ffffff"/>
  <rect x="10" y="10" width="44" height="44" fill="#111827"/>
  <rect x="18" y="18" width="28" height="28" fill="#ffffff"/>
  <rect x="26" y="26" width="12" height="12" fill="#111827"/>
  <rect x="106" y="10" width="44" height="44" fill="#111827"/>
  <rect x="114" y="18" width="28" height="28" fill="#ffffff"/>
  <rect x="122" y="26" width="12" height="12" fill="#111827"/>
  <rect x="10" y="106" width="44" height="44" fill="#111827"/>
  <rect x="18" y="114" width="28" height="28" fill="#ffffff"/>
  <rect x="26" y="122" width="12" height="12" fill="#111827"/>
  <rect x="72" y="64" width="16" height="16" fill="#111827"/>
  <rect x="92" y="84" width="12" height="12" fill="#111827"/>
  <rect x="72" y="96" width="12" height="12" fill="#111827"/>
  <rect x="104" y="72" width="12" height="12" fill="#111827"/>
  <rect x="64" y="84" width="8" height="8" fill="#111827"/>
</svg>
