<svg xmlns="http://www.w3.org/2000/svg" width="160" height="160" viewBox="0 0 160 160">
  <defs>
    <linearGradient id="bz-grad" x1="0" y1="0" x2="1" y2="1">
      <stop offset="0%" stop-color="#0f172a"/>
      <stop offset="100%" stop-color="#2563eb"/>
    </linearGradient>
  </defs>
  <rect width="160" height="160" rx="36" fill="url(#bz-grad)"/>
  <path d="M46 44h40c12 0 20 7 20 18 0 7-4 12-10 15 8 2 14 8 14 17 0 12-9 22-25 22H46V44zm18 22h18c5 0 8-3 8-7 0-5-3-7-8-7H64v14zm0 28h20c6 0 10-3 10-8 0-6-4-8-10-8H64v16z" fill="#ffffff"/>
  <path d="M92 44h40v12l-28 40h28v20H92v-12l28-40H92V44z" fill="#e2e8f0"/>
</svg>
