<svg xmlns="http://www.w3.org/2000/svg" width="96" height="96" viewBox="0 0 96 96">
  <rect width="96" height="96" rx="20" fill="#111827"/>
  <path d="M48 22c-13.3 0-24 10.7-24 24 0 10.6 6.9 19.6 16.4 22.7 1.2.2 1.6-.5 1.6-1.2v-4.1c-6.7 1.4-8.1-3-8.1-3-1.1-2.8-2.7-3.6-2.7-3.6-2.2-1.5.2-1.5.2-1.5 2.4.2 3.7 2.5 3.7 2.5 2.1 3.7 5.6 2.6 7 2 .2-1.5.8-2.6 1.5-3.2-5.4-.6-11.1-2.7-11.1-12 0-2.6.9-4.7 2.4-6.4-.3-.6-1.1-3.1.2-6.4 0 0 2-.6 6.5 2.4 1.9-.5 3.9-.8 5.9-.8 2 0 4 .3 5.9.8 4.5-3 6.5-2.4 6.5-2.4 1.3 3.3.5 5.8.2 6.4 1.5 1.7 2.4 3.8 2.4 6.4 0 9.3-5.7 11.4-11.1 12 .8.7 1.6 2 1.6 4.1v6c0 .7.4 1.4 1.6 1.2C65.1 65.6 72 56.6 72 46c0-13.3-10.7-24-24-24z" fill="#ffffff"/>
</svg>
